# xmcd
# 
# Track frame offsets:
#     151
#     22250
#     41926
#     64935
#     84408
#     103063
#     122018
#     141711
#     158008
#     183237
#     200764
#     224579
#     240710
#     256671
# 
# Disc length: 3733
# 
# Revision: 1
# Processed by: cddbd v1.5.2PL0 Copyright (c) Steve Scherf et al.
# Submitted via: fre:ac v1.1beta1pre4
# 
DISCID=d60e930e
DTITLE=Chakra's Dream - Aromatherapy - Chakra's Dream - Aromatherapy
DYEAR=2002
DGENRE=New Age
TTITLE0=Pleasure of Scent
TTITLE1=Vanilla
TTITLE2=Unwinding
TTITLE3=Herbal Odours
TTITLE4=Life Giving Oil
TTITLE5=Lemon Grass Caress
TTITLE6=Relaxing Breezes
TTITLE7=Inhaling Relief
TTITLE8=Sensual Scent
TTITLE9=Essential Oils
TTITLE10=Calming and Cool
TTITLE11=Holistic Lifestyles
TTITLE12=Lavender's Bliss
TTITLE13=Aroma's Blues
EXTD=YEAR: 2002
EXTT0=
EXTT1=
EXTT2=
EXTT3=
EXTT4=
EXTT5=
EXTT6=
EXTT7=
EXTT8=
EXTT9=
EXTT10=
EXTT11=
EXTT12=
EXTT13=
PLAYORDER=
